<svg width="80" height="13" viewBox="0 0 80 13" fill="none" xmlns="http://www.w3.org/2000/svg">
<path d="M8.05469 10.6484V12H0.484375C0.473958 11.6615 0.528646 11.3359 0.648438 11.0234C0.841146 10.5078 1.14844 10 1.57031 9.5C1.9974 9 2.61198 8.42188 3.41406 7.76562C4.65885 6.74479 5.5 5.9375 5.9375 5.34375C6.375 4.74479 6.59375 4.17969 6.59375 3.64844C6.59375 3.09115 6.39323 2.6224 5.99219 2.24219C5.59635 1.85677 5.07812 1.66406 4.4375 1.66406C3.76042 1.66406 3.21875 1.86719 2.8125 2.27344C2.40625 2.67969 2.20052 3.24219 2.19531 3.96094L0.75 3.8125C0.848958 2.73438 1.22135 1.91406 1.86719 1.35156C2.51302 0.783854 3.38021 0.5 4.46875 0.5C5.56771 0.5 6.4375 0.804688 7.07812 1.41406C7.71875 2.02344 8.03906 2.77865 8.03906 3.67969C8.03906 4.13802 7.94531 4.58854 7.75781 5.03125C7.57031 5.47396 7.25781 5.9401 6.82031 6.42969C6.38802 6.91927 5.66667 7.59115 4.65625 8.44531C3.8125 9.15365 3.27083 9.63542 3.03125 9.89062C2.79167 10.1406 2.59375 10.3932 2.4375 10.6484H8.05469ZM9.66406 2.04688V0.695312H17.0781V1.78906C16.349 2.5651 15.625 3.59635 14.9062 4.88281C14.1927 6.16927 13.6406 7.49219 13.25 8.85156C12.9688 9.8099 12.7891 10.8594 12.7109 12H11.2656C11.2812 11.099 11.4583 10.0104 11.7969 8.73438C12.1354 7.45833 12.6198 6.22917 13.25 5.04688C13.8854 3.85938 14.5599 2.85938 15.2734 2.04688H9.66406ZM18.6875 9.35156L20.0391 9.22656C20.1536 9.86198 20.3724 10.3229 20.6953 10.6094C21.0182 10.8958 21.4323 11.0391 21.9375 11.0391C22.3698 11.0391 22.7474 10.9401 23.0703 10.7422C23.3984 10.5443 23.6667 10.2812 23.875 9.95312C24.0833 9.61979 24.2578 9.17188 24.3984 8.60938C24.5391 8.04688 24.6094 7.47396 24.6094 6.89062C24.6094 6.82812 24.6068 6.73438 24.6016 6.60938C24.3203 7.05729 23.9349 7.42188 23.4453 7.70312C22.9609 7.97917 22.4349 8.11719 21.8672 8.11719C20.9193 8.11719 20.1172 7.77344 19.4609 7.08594C18.8047 6.39844 18.4766 5.49219 18.4766 4.36719C18.4766 3.20573 18.8177 2.27083 19.5 1.5625C20.1875 0.854167 21.0469 0.5 22.0781 0.5C22.8229 0.5 23.5026 0.700521 24.1172 1.10156C24.737 1.5026 25.2057 2.07552 25.5234 2.82031C25.8464 3.5599 26.0078 4.63281 26.0078 6.03906C26.0078 7.5026 25.849 8.66927 25.5312 9.53906C25.2135 10.4036 24.7396 11.0625 24.1094 11.5156C23.4844 11.9688 22.75 12.1953 21.9062 12.1953C21.0104 12.1953 20.2786 11.9479 19.7109 11.4531C19.1432 10.9531 18.8021 10.2526 18.6875 9.35156ZM24.4453 4.29688C24.4453 3.48958 24.2292 2.84896 23.7969 2.375C23.3698 1.90104 22.8542 1.66406 22.25 1.66406C21.625 1.66406 21.0807 1.91927 20.6172 2.42969C20.1536 2.9401 19.9219 3.60156 19.9219 4.41406C19.9219 5.14323 20.1406 5.73698 20.5781 6.19531C21.0208 6.64844 21.5651 6.875 22.2109 6.875C22.862 6.875 23.3958 6.64844 23.8125 6.19531C24.2344 5.73698 24.4453 5.10417 24.4453 4.29688ZM34.6797 3.35156L33.2812 3.46094C33.1562 2.90885 32.9792 2.50781 32.75 2.25781C32.3698 1.85677 31.901 1.65625 31.3438 1.65625C30.8958 1.65625 30.5026 1.78125 30.1641 2.03125C29.7214 2.35417 29.3724 2.82552 29.1172 3.44531C28.862 4.0651 28.7292 4.94792 28.7188 6.09375C29.0573 5.57812 29.4714 5.19531 29.9609 4.94531C30.4505 4.69531 30.9635 4.57031 31.5 4.57031C32.4375 4.57031 33.2344 4.91667 33.8906 5.60938C34.5521 6.29688 34.8828 7.1875 34.8828 8.28125C34.8828 9 34.7266 9.66927 34.4141 10.2891C34.1068 10.9036 33.6823 11.375 33.1406 11.7031C32.599 12.0312 31.9844 12.1953 31.2969 12.1953C30.125 12.1953 29.1693 11.7656 28.4297 10.9062C27.6901 10.0417 27.3203 8.61979 27.3203 6.64062C27.3203 4.42708 27.7292 2.81771 28.5469 1.8125C29.2604 0.9375 30.2214 0.5 31.4297 0.5C32.3307 0.5 33.0677 0.752604 33.6406 1.25781C34.2188 1.76302 34.5651 2.46094 34.6797 3.35156ZM28.9375 8.28906C28.9375 8.77344 29.0391 9.23698 29.2422 9.67969C29.4505 10.1224 29.7396 10.4609 30.1094 10.6953C30.4792 10.9245 30.8672 11.0391 31.2734 11.0391C31.8672 11.0391 32.3776 10.7995 32.8047 10.3203C33.2318 9.84115 33.4453 9.1901 33.4453 8.36719C33.4453 7.57552 33.2344 6.95312 32.8125 6.5C32.3906 6.04167 31.8594 5.8125 31.2188 5.8125C30.5833 5.8125 30.0443 6.04167 29.6016 6.5C29.1589 6.95312 28.9375 7.54948 28.9375 8.28906ZM36.3828 2.04688V0.695312H43.7969V1.78906C43.0677 2.5651 42.3438 3.59635 41.625 4.88281C40.9115 6.16927 40.3594 7.49219 39.9688 8.85156C39.6875 9.8099 39.5078 10.8594 39.4297 12H37.9844C38 11.099 38.1771 10.0104 38.5156 8.73438C38.8542 7.45833 39.3385 6.22917 39.9688 5.04688C40.6042 3.85938 41.2786 2.85938 41.9922 2.04688H36.3828ZM45.4062 9.35156L46.7578 9.22656C46.8724 9.86198 47.0911 10.3229 47.4141 10.6094C47.737 10.8958 48.151 11.0391 48.6562 11.0391C49.0885 11.0391 49.4661 10.9401 49.7891 10.7422C50.1172 10.5443 50.3854 10.2812 50.5938 9.95312C50.8021 9.61979 50.9766 9.17188 51.1172 8.60938C51.2578 8.04688 51.3281 7.47396 51.3281 6.89062C51.3281 6.82812 51.3255 6.73438 51.3203 6.60938C51.0391 7.05729 50.6536 7.42188 50.1641 7.70312C49.6797 7.97917 49.1536 8.11719 48.5859 8.11719C47.638 8.11719 46.8359 7.77344 46.1797 7.08594C45.5234 6.39844 45.1953 5.49219 45.1953 4.36719C45.1953 3.20573 45.5365 2.27083 46.2188 1.5625C46.9062 0.854167 47.7656 0.5 48.7969 0.5C49.5417 0.5 50.2214 0.700521 50.8359 1.10156C51.4557 1.5026 51.9245 2.07552 52.2422 2.82031C52.5651 3.5599 52.7266 4.63281 52.7266 6.03906C52.7266 7.5026 52.5677 8.66927 52.25 9.53906C51.9323 10.4036 51.4583 11.0625 50.8281 11.5156C50.2031 11.9688 49.4688 12.1953 48.625 12.1953C47.7292 12.1953 46.9974 11.9479 46.4297 11.4531C45.862 10.9531 45.5208 10.2526 45.4062 9.35156ZM51.1641 4.29688C51.1641 3.48958 50.9479 2.84896 50.5156 2.375C50.0885 1.90104 49.5729 1.66406 48.9688 1.66406C48.3438 1.66406 47.7995 1.91927 47.3359 2.42969C46.8724 2.9401 46.6406 3.60156 46.6406 4.41406C46.6406 5.14323 46.8594 5.73698 47.2969 6.19531C47.7396 6.64844 48.2839 6.875 48.9297 6.875C49.5807 6.875 50.1146 6.64844 50.5312 6.19531C50.9531 5.73698 51.1641 5.10417 51.1641 4.29688ZM61.3984 3.35156L60 3.46094C59.875 2.90885 59.6979 2.50781 59.4688 2.25781C59.0885 1.85677 58.6198 1.65625 58.0625 1.65625C57.6146 1.65625 57.2214 1.78125 56.8828 2.03125C56.4401 2.35417 56.0911 2.82552 55.8359 3.44531C55.5807 4.0651 55.4479 4.94792 55.4375 6.09375C55.776 5.57812 56.1901 5.19531 56.6797 4.94531C57.1693 4.69531 57.6823 4.57031 58.2188 4.57031C59.1562 4.57031 59.9531 4.91667 60.6094 5.60938C61.2708 6.29688 61.6016 7.1875 61.6016 8.28125C61.6016 9 61.4453 9.66927 61.1328 10.2891C60.8255 10.9036 60.401 11.375 59.8594 11.7031C59.3177 12.0312 58.7031 12.1953 58.0156 12.1953C56.8438 12.1953 55.888 11.7656 55.1484 10.9062C54.4089 10.0417 54.0391 8.61979 54.0391 6.64062C54.0391 4.42708 54.4479 2.81771 55.2656 1.8125C55.9792 0.9375 56.9401 0.5 58.1484 0.5C59.0495 0.5 59.7865 0.752604 60.3594 1.25781C60.9375 1.76302 61.2839 2.46094 61.3984 3.35156ZM55.6562 8.28906C55.6562 8.77344 55.7578 9.23698 55.9609 9.67969C56.1693 10.1224 56.4583 10.4609 56.8281 10.6953C57.1979 10.9245 57.5859 11.0391 57.9922 11.0391C58.5859 11.0391 59.0964 10.7995 59.5234 10.3203C59.9505 9.84115 60.1641 9.1901 60.1641 8.36719C60.1641 7.57552 59.9531 6.95312 59.5312 6.5C59.1094 6.04167 58.5781 5.8125 57.9375 5.8125C57.3021 5.8125 56.763 6.04167 56.3203 6.5C55.8776 6.95312 55.6562 7.54948 55.6562 8.28906ZM63.0078 9L64.4844 8.875C64.5938 9.59375 64.8464 10.1354 65.2422 10.5C65.6432 10.8594 66.125 11.0391 66.6875 11.0391C67.3646 11.0391 67.9375 10.7839 68.4062 10.2734C68.875 9.76302 69.1094 9.08594 69.1094 8.24219C69.1094 7.4401 68.8828 6.80729 68.4297 6.34375C67.9818 5.88021 67.3932 5.64844 66.6641 5.64844C66.2109 5.64844 65.8021 5.7526 65.4375 5.96094C65.0729 6.16406 64.7865 6.42969 64.5781 6.75781L63.2578 6.58594L64.3672 0.703125H70.0625V2.04688H65.4922L64.875 5.125C65.5625 4.64583 66.2839 4.40625 67.0391 4.40625C68.0391 4.40625 68.8828 4.7526 69.5703 5.44531C70.2578 6.13802 70.6016 7.02865 70.6016 8.11719C70.6016 9.15365 70.2995 10.0495 69.6953 10.8047C68.9609 11.7318 67.9583 12.1953 66.6875 12.1953C65.6458 12.1953 64.7943 11.9036 64.1328 11.3203C63.4766 10.737 63.1016 9.96354 63.0078 9ZM72.125 9.35156L73.4766 9.22656C73.5911 9.86198 73.8099 10.3229 74.1328 10.6094C74.4557 10.8958 74.8698 11.0391 75.375 11.0391C75.8073 11.0391 76.1849 10.9401 76.5078 10.7422C76.8359 10.5443 77.1042 10.2812 77.3125 9.95312C77.5208 9.61979 77.6953 9.17188 77.8359 8.60938C77.9766 8.04688 78.0469 7.47396 78.0469 6.89062C78.0469 6.82812 78.0443 6.73438 78.0391 6.60938C77.7578 7.05729 77.3724 7.42188 76.8828 7.70312C76.3984 7.97917 75.8724 8.11719 75.3047 8.11719C74.3568 8.11719 73.5547 7.77344 72.8984 7.08594C72.2422 6.39844 71.9141 5.49219 71.9141 4.36719C71.9141 3.20573 72.2552 2.27083 72.9375 1.5625C73.625 0.854167 74.4844 0.5 75.5156 0.5C76.2604 0.5 76.9401 0.700521 77.5547 1.10156C78.1745 1.5026 78.6432 2.07552 78.9609 2.82031C79.2839 3.5599 79.4453 4.63281 79.4453 6.03906C79.4453 7.5026 79.2865 8.66927 78.9688 9.53906C78.651 10.4036 78.1771 11.0625 77.5469 11.5156C76.9219 11.9688 76.1875 12.1953 75.3438 12.1953C74.4479 12.1953 73.7161 11.9479 73.1484 11.4531C72.5807 10.9531 72.2396 10.2526 72.125 9.35156ZM77.8828 4.29688C77.8828 3.48958 77.6667 2.84896 77.2344 2.375C76.8073 1.90104 76.2917 1.66406 75.6875 1.66406C75.0625 1.66406 74.5182 1.91927 74.0547 2.42969C73.5911 2.9401 73.3594 3.60156 73.3594 4.41406C73.3594 5.14323 73.5781 5.73698 74.0156 6.19531C74.4583 6.64844 75.0026 6.875 75.6484 6.875C76.2995 6.875 76.8333 6.64844 77.25 6.19531C77.6719 5.73698 77.8828 5.10417 77.8828 4.29688Z" fill="white"/>
</svg>
