<svg width="124" height="13" viewBox="0 0 124 13" fill="none" xmlns="http://www.w3.org/2000/svg">
<path d="M2.82812 5.78906C2.24479 5.57552 1.8125 5.27083 1.53125 4.875C1.25 4.47917 1.10938 4.00521 1.10938 3.45312C1.10938 2.61979 1.40885 1.91927 2.00781 1.35156C2.60677 0.783854 3.40365 0.5 4.39844 0.5C5.39844 0.5 6.20312 0.791667 6.8125 1.375C7.42188 1.95312 7.72656 2.65885 7.72656 3.49219C7.72656 4.02344 7.58594 4.48698 7.30469 4.88281C7.02865 5.27344 6.60677 5.57552 6.03906 5.78906C6.74219 6.01823 7.27604 6.38802 7.64062 6.89844C8.01042 7.40885 8.19531 8.01823 8.19531 8.72656C8.19531 9.70573 7.84896 10.5286 7.15625 11.1953C6.46354 11.862 5.55208 12.1953 4.42188 12.1953C3.29167 12.1953 2.38021 11.862 1.6875 11.1953C0.994792 10.5234 0.648438 9.6875 0.648438 8.6875C0.648438 7.94271 0.835938 7.32031 1.21094 6.82031C1.59115 6.3151 2.13021 5.97135 2.82812 5.78906ZM2.54688 3.40625C2.54688 3.94792 2.72135 4.39062 3.07031 4.73438C3.41927 5.07812 3.8724 5.25 4.42969 5.25C4.97135 5.25 5.41406 5.08073 5.75781 4.74219C6.10677 4.39844 6.28125 3.97917 6.28125 3.48438C6.28125 2.96875 6.10156 2.53646 5.74219 2.1875C5.38802 1.83333 4.94531 1.65625 4.41406 1.65625C3.8776 1.65625 3.43229 1.82812 3.07812 2.17188C2.72396 2.51562 2.54688 2.92708 2.54688 3.40625ZM2.09375 8.69531C2.09375 9.09635 2.1875 9.48438 2.375 9.85938C2.56771 10.2344 2.85156 10.526 3.22656 10.7344C3.60156 10.9375 4.00521 11.0391 4.4375 11.0391C5.10938 11.0391 5.66406 10.8229 6.10156 10.3906C6.53906 9.95833 6.75781 9.40885 6.75781 8.74219C6.75781 8.0651 6.53125 7.50521 6.07812 7.0625C5.63021 6.61979 5.06771 6.39844 4.39062 6.39844C3.72917 6.39844 3.17969 6.61719 2.74219 7.05469C2.3099 7.49219 2.09375 8.03906 2.09375 8.69531ZM9.57031 6.35156C9.57031 4.9974 9.70833 3.90885 9.98438 3.08594C10.2656 2.25781 10.6797 1.61979 11.2266 1.17188C11.7786 0.723958 12.4714 0.5 13.3047 0.5C13.9193 0.5 14.4583 0.625 14.9219 0.875C15.3854 1.11979 15.7682 1.47656 16.0703 1.94531C16.3724 2.40885 16.6094 2.97656 16.7812 3.64844C16.9531 4.3151 17.0391 5.21615 17.0391 6.35156C17.0391 7.69531 16.901 8.78125 16.625 9.60938C16.349 10.4323 15.9349 11.0703 15.3828 11.5234C14.8359 11.9714 14.1432 12.1953 13.3047 12.1953C12.2005 12.1953 11.3333 11.7995 10.7031 11.0078C9.94792 10.0547 9.57031 8.5026 9.57031 6.35156ZM11.0156 6.35156C11.0156 8.23177 11.2344 9.48438 11.6719 10.1094C12.1146 10.7292 12.6589 11.0391 13.3047 11.0391C13.9505 11.0391 14.4922 10.7266 14.9297 10.1016C15.3724 9.47656 15.5938 8.22656 15.5938 6.35156C15.5938 4.46615 15.3724 3.21354 14.9297 2.59375C14.4922 1.97396 13.9453 1.66406 13.2891 1.66406C12.6432 1.66406 12.1276 1.9375 11.7422 2.48438C11.2578 3.18229 11.0156 4.47135 11.0156 6.35156ZM22.9297 6.35156C22.9297 4.9974 23.0677 3.90885 23.3438 3.08594C23.625 2.25781 24.0391 1.61979 24.5859 1.17188C25.138 0.723958 25.8307 0.5 26.6641 0.5C27.2786 0.5 27.8177 0.625 28.2812 0.875C28.7448 1.11979 29.1276 1.47656 29.4297 1.94531C29.7318 2.40885 29.9688 2.97656 30.1406 3.64844C30.3125 4.3151 30.3984 5.21615 30.3984 6.35156C30.3984 7.69531 30.2604 8.78125 29.9844 9.60938C29.7083 10.4323 29.2943 11.0703 28.7422 11.5234C28.1953 11.9714 27.5026 12.1953 26.6641 12.1953C25.5599 12.1953 24.6927 11.7995 24.0625 11.0078C23.3073 10.0547 22.9297 8.5026 22.9297 6.35156ZM24.375 6.35156C24.375 8.23177 24.5938 9.48438 25.0312 10.1094C25.474 10.7292 26.0182 11.0391 26.6641 11.0391C27.3099 11.0391 27.8516 10.7266 28.2891 10.1016C28.7318 9.47656 28.9531 8.22656 28.9531 6.35156C28.9531 4.46615 28.7318 3.21354 28.2891 2.59375C27.8516 1.97396 27.3047 1.66406 26.6484 1.66406C26.0026 1.66406 25.487 1.9375 25.1016 2.48438C24.6172 3.18229 24.375 4.47135 24.375 6.35156ZM31.8359 6.35156C31.8359 4.9974 31.974 3.90885 32.25 3.08594C32.5312 2.25781 32.9453 1.61979 33.4922 1.17188C34.0443 0.723958 34.737 0.5 35.5703 0.5C36.1849 0.5 36.724 0.625 37.1875 0.875C37.651 1.11979 38.0339 1.47656 38.3359 1.94531C38.638 2.40885 38.875 2.97656 39.0469 3.64844C39.2188 4.3151 39.3047 5.21615 39.3047 6.35156C39.3047 7.69531 39.1667 8.78125 38.8906 9.60938C38.6146 10.4323 38.2005 11.0703 37.6484 11.5234C37.1016 11.9714 36.4089 12.1953 35.5703 12.1953C34.4661 12.1953 33.599 11.7995 32.9688 11.0078C32.2135 10.0547 31.8359 8.5026 31.8359 6.35156ZM33.2812 6.35156C33.2812 8.23177 33.5 9.48438 33.9375 10.1094C34.3802 10.7292 34.9245 11.0391 35.5703 11.0391C36.2161 11.0391 36.7578 10.7266 37.1953 10.1016C37.638 9.47656 37.8594 8.22656 37.8594 6.35156C37.8594 4.46615 37.638 3.21354 37.1953 2.59375C36.7578 1.97396 36.2109 1.66406 35.5547 1.66406C34.9089 1.66406 34.3932 1.9375 34.0078 2.48438C33.5234 3.18229 33.2812 4.47135 33.2812 6.35156ZM49.7031 12V9.25781H44.7344V7.96875L49.9609 0.546875H51.1094V7.96875H52.6562V9.25781H51.1094V12H49.7031ZM49.7031 7.96875V2.80469L46.1172 7.96875H49.7031ZM54.1016 9L55.5781 8.875C55.6875 9.59375 55.9401 10.1354 56.3359 10.5C56.737 10.8594 57.2188 11.0391 57.7812 11.0391C58.4583 11.0391 59.0312 10.7839 59.5 10.2734C59.9688 9.76302 60.2031 9.08594 60.2031 8.24219C60.2031 7.4401 59.9766 6.80729 59.5234 6.34375C59.0755 5.88021 58.487 5.64844 57.7578 5.64844C57.3047 5.64844 56.8958 5.7526 56.5312 5.96094C56.1667 6.16406 55.8802 6.42969 55.6719 6.75781L54.3516 6.58594L55.4609 0.703125H61.1562V2.04688H56.5859L55.9688 5.125C56.6562 4.64583 57.3776 4.40625 58.1328 4.40625C59.1328 4.40625 59.9766 4.7526 60.6641 5.44531C61.3516 6.13802 61.6953 7.02865 61.6953 8.11719C61.6953 9.15365 61.3932 10.0495 60.7891 10.8047C60.0547 11.7318 59.0521 12.1953 57.7812 12.1953C56.7396 12.1953 55.888 11.9036 55.2266 11.3203C54.5703 10.737 54.1953 9.96354 54.1016 9ZM70.3047 3.35156L68.9062 3.46094C68.7812 2.90885 68.6042 2.50781 68.375 2.25781C67.9948 1.85677 67.526 1.65625 66.9688 1.65625C66.5208 1.65625 66.1276 1.78125 65.7891 2.03125C65.3464 2.35417 64.9974 2.82552 64.7422 3.44531C64.487 4.0651 64.3542 4.94792 64.3438 6.09375C64.6823 5.57812 65.0964 5.19531 65.5859 4.94531C66.0755 4.69531 66.5885 4.57031 67.125 4.57031C68.0625 4.57031 68.8594 4.91667 69.5156 5.60938C70.1771 6.29688 70.5078 7.1875 70.5078 8.28125C70.5078 9 70.3516 9.66927 70.0391 10.2891C69.7318 10.9036 69.3073 11.375 68.7656 11.7031C68.224 12.0312 67.6094 12.1953 66.9219 12.1953C65.75 12.1953 64.7943 11.7656 64.0547 10.9062C63.3151 10.0417 62.9453 8.61979 62.9453 6.64062C62.9453 4.42708 63.3542 2.81771 64.1719 1.8125C64.8854 0.9375 65.8464 0.5 67.0547 0.5C67.9557 0.5 68.6927 0.752604 69.2656 1.25781C69.8438 1.76302 70.1901 2.46094 70.3047 3.35156ZM64.5625 8.28906C64.5625 8.77344 64.6641 9.23698 64.8672 9.67969C65.0755 10.1224 65.3646 10.4609 65.7344 10.6953C66.1042 10.9245 66.4922 11.0391 66.8984 11.0391C67.4922 11.0391 68.0026 10.7995 68.4297 10.3203C68.8568 9.84115 69.0703 9.1901 69.0703 8.36719C69.0703 7.57552 68.8594 6.95312 68.4375 6.5C68.0156 6.04167 67.4844 5.8125 66.8438 5.8125C66.2083 5.8125 65.6693 6.04167 65.2266 6.5C64.7839 6.95312 64.5625 7.54948 64.5625 8.28906ZM74.0781 5.78906C73.4948 5.57552 73.0625 5.27083 72.7812 4.875C72.5 4.47917 72.3594 4.00521 72.3594 3.45312C72.3594 2.61979 72.6589 1.91927 73.2578 1.35156C73.8568 0.783854 74.6536 0.5 75.6484 0.5C76.6484 0.5 77.4531 0.791667 78.0625 1.375C78.6719 1.95312 78.9766 2.65885 78.9766 3.49219C78.9766 4.02344 78.8359 4.48698 78.5547 4.88281C78.2786 5.27344 77.8568 5.57552 77.2891 5.78906C77.9922 6.01823 78.526 6.38802 78.8906 6.89844C79.2604 7.40885 79.4453 8.01823 79.4453 8.72656C79.4453 9.70573 79.099 10.5286 78.4062 11.1953C77.7135 11.862 76.8021 12.1953 75.6719 12.1953C74.5417 12.1953 73.6302 11.862 72.9375 11.1953C72.2448 10.5234 71.8984 9.6875 71.8984 8.6875C71.8984 7.94271 72.0859 7.32031 72.4609 6.82031C72.8411 6.3151 73.3802 5.97135 74.0781 5.78906ZM73.7969 3.40625C73.7969 3.94792 73.9714 4.39062 74.3203 4.73438C74.6693 5.07812 75.1224 5.25 75.6797 5.25C76.2214 5.25 76.6641 5.08073 77.0078 4.74219C77.3568 4.39844 77.5312 3.97917 77.5312 3.48438C77.5312 2.96875 77.3516 2.53646 76.9922 2.1875C76.638 1.83333 76.1953 1.65625 75.6641 1.65625C75.1276 1.65625 74.6823 1.82812 74.3281 2.17188C73.974 2.51562 73.7969 2.92708 73.7969 3.40625ZM73.3438 8.69531C73.3438 9.09635 73.4375 9.48438 73.625 9.85938C73.8177 10.2344 74.1016 10.526 74.4766 10.7344C74.8516 10.9375 75.2552 11.0391 75.6875 11.0391C76.3594 11.0391 76.9141 10.8229 77.3516 10.3906C77.7891 9.95833 78.0078 9.40885 78.0078 8.74219C78.0078 8.0651 77.7812 7.50521 77.3281 7.0625C76.8802 6.61979 76.3177 6.39844 75.6406 6.39844C74.9792 6.39844 74.4297 6.61719 73.9922 7.05469C73.5599 7.49219 73.3438 8.03906 73.3438 8.69531ZM85.2734 9L86.75 8.875C86.8594 9.59375 87.112 10.1354 87.5078 10.5C87.9089 10.8594 88.3906 11.0391 88.9531 11.0391C89.6302 11.0391 90.2031 10.7839 90.6719 10.2734C91.1406 9.76302 91.375 9.08594 91.375 8.24219C91.375 7.4401 91.1484 6.80729 90.6953 6.34375C90.2474 5.88021 89.6589 5.64844 88.9297 5.64844C88.4766 5.64844 88.0677 5.7526 87.7031 5.96094C87.3385 6.16406 87.0521 6.42969 86.8438 6.75781L85.5234 6.58594L86.6328 0.703125H92.3281V2.04688H87.7578L87.1406 5.125C87.8281 4.64583 88.5495 4.40625 89.3047 4.40625C90.3047 4.40625 91.1484 4.7526 91.8359 5.44531C92.5234 6.13802 92.8672 7.02865 92.8672 8.11719C92.8672 9.15365 92.5651 10.0495 91.9609 10.8047C91.2266 11.7318 90.224 12.1953 88.9531 12.1953C87.9115 12.1953 87.0599 11.9036 86.3984 11.3203C85.7422 10.737 85.3672 9.96354 85.2734 9ZM94.1797 9L95.6562 8.875C95.7656 9.59375 96.0182 10.1354 96.4141 10.5C96.8151 10.8594 97.2969 11.0391 97.8594 11.0391C98.5365 11.0391 99.1094 10.7839 99.5781 10.2734C100.047 9.76302 100.281 9.08594 100.281 8.24219C100.281 7.4401 100.055 6.80729 99.6016 6.34375C99.1536 5.88021 98.5651 5.64844 97.8359 5.64844C97.3828 5.64844 96.974 5.7526 96.6094 5.96094C96.2448 6.16406 95.9583 6.42969 95.75 6.75781L94.4297 6.58594L95.5391 0.703125H101.234V2.04688H96.6641L96.0469 5.125C96.7344 4.64583 97.4557 4.40625 98.2109 4.40625C99.2109 4.40625 100.055 4.7526 100.742 5.44531C101.43 6.13802 101.773 7.02865 101.773 8.11719C101.773 9.15365 101.471 10.0495 100.867 10.8047C100.133 11.7318 99.1302 12.1953 97.8594 12.1953C96.8177 12.1953 95.9661 11.9036 95.3047 11.3203C94.6484 10.737 94.2734 9.96354 94.1797 9ZM107.539 9L109.016 8.875C109.125 9.59375 109.378 10.1354 109.773 10.5C110.174 10.8594 110.656 11.0391 111.219 11.0391C111.896 11.0391 112.469 10.7839 112.938 10.2734C113.406 9.76302 113.641 9.08594 113.641 8.24219C113.641 7.4401 113.414 6.80729 112.961 6.34375C112.513 5.88021 111.924 5.64844 111.195 5.64844C110.742 5.64844 110.333 5.7526 109.969 5.96094C109.604 6.16406 109.318 6.42969 109.109 6.75781L107.789 6.58594L108.898 0.703125H114.594V2.04688H110.023L109.406 5.125C110.094 4.64583 110.815 4.40625 111.57 4.40625C112.57 4.40625 113.414 4.7526 114.102 5.44531C114.789 6.13802 115.133 7.02865 115.133 8.11719C115.133 9.15365 114.831 10.0495 114.227 10.8047C113.492 11.7318 112.49 12.1953 111.219 12.1953C110.177 12.1953 109.326 11.9036 108.664 11.3203C108.008 10.737 107.633 9.96354 107.539 9ZM116.445 9L117.922 8.875C118.031 9.59375 118.284 10.1354 118.68 10.5C119.081 10.8594 119.562 11.0391 120.125 11.0391C120.802 11.0391 121.375 10.7839 121.844 10.2734C122.312 9.76302 122.547 9.08594 122.547 8.24219C122.547 7.4401 122.32 6.80729 121.867 6.34375C121.419 5.88021 120.831 5.64844 120.102 5.64844C119.648 5.64844 119.24 5.7526 118.875 5.96094C118.51 6.16406 118.224 6.42969 118.016 6.75781L116.695 6.58594L117.805 0.703125H123.5V2.04688H118.93L118.312 5.125C119 4.64583 119.721 4.40625 120.477 4.40625C121.477 4.40625 122.32 4.7526 123.008 5.44531C123.695 6.13802 124.039 7.02865 124.039 8.11719C124.039 9.15365 123.737 10.0495 123.133 10.8047C122.398 11.7318 121.396 12.1953 120.125 12.1953C119.083 12.1953 118.232 11.9036 117.57 11.3203C116.914 10.737 116.539 9.96354 116.445 9Z" fill="white"/>
</svg>
