<svg width="164" height="16" viewBox="0 0 164 16" fill="none" xmlns="http://www.w3.org/2000/svg">
<path d="M0.0546875 12V0.546875H1.46094V4.65625C2.11719 3.89583 2.94531 3.51562 3.94531 3.51562C4.5599 3.51562 5.09375 3.63802 5.54688 3.88281C6 4.1224 6.32292 4.45573 6.51562 4.88281C6.71354 5.3099 6.8125 5.92969 6.8125 6.74219V12H5.40625V6.74219C5.40625 6.03906 5.2526 5.52865 4.94531 5.21094C4.64323 4.88802 4.21354 4.72656 3.65625 4.72656C3.23958 4.72656 2.84635 4.83594 2.47656 5.05469C2.11198 5.26823 1.85156 5.5599 1.69531 5.92969C1.53906 6.29948 1.46094 6.8099 1.46094 7.46094V12H0.0546875ZM14.6406 9.32812L16.0938 9.50781C15.8646 10.3568 15.4401 11.0156 14.8203 11.4844C14.2005 11.9531 13.4089 12.1875 12.4453 12.1875C11.2318 12.1875 10.2682 11.8151 9.55469 11.0703C8.84635 10.3203 8.49219 9.27083 8.49219 7.92188C8.49219 6.52604 8.85156 5.44271 9.57031 4.67188C10.2891 3.90104 11.2214 3.51562 12.3672 3.51562C13.4766 3.51562 14.3828 3.89323 15.0859 4.64844C15.7891 5.40365 16.1406 6.46615 16.1406 7.83594C16.1406 7.91927 16.138 8.04427 16.1328 8.21094H9.94531C9.9974 9.1224 10.2552 9.82031 10.7188 10.3047C11.1823 10.7891 11.7604 11.0312 12.4531 11.0312C12.9688 11.0312 13.4089 10.8958 13.7734 10.625C14.138 10.3542 14.4271 9.92188 14.6406 9.32812ZM10.0234 7.05469H14.6562C14.5938 6.35677 14.4167 5.83333 14.125 5.48438C13.6771 4.94271 13.0964 4.67188 12.3828 4.67188C11.737 4.67188 11.1927 4.88802 10.75 5.32031C10.3125 5.7526 10.0703 6.33073 10.0234 7.05469ZM17.8516 12V3.70312H19.1172V4.96094C19.4401 4.3724 19.737 3.98438 20.0078 3.79688C20.2839 3.60938 20.5859 3.51562 20.9141 3.51562C21.388 3.51562 21.8698 3.66667 22.3594 3.96875L21.875 5.27344C21.5312 5.07031 21.1875 4.96875 20.8438 4.96875C20.5365 4.96875 20.2604 5.0625 20.0156 5.25C19.7708 5.43229 19.5964 5.6875 19.4922 6.01562C19.3359 6.51562 19.2578 7.0625 19.2578 7.65625V12H17.8516ZM28.875 9.32812L30.3281 9.50781C30.099 10.3568 29.6745 11.0156 29.0547 11.4844C28.4349 11.9531 27.6432 12.1875 26.6797 12.1875C25.4661 12.1875 24.5026 11.8151 23.7891 11.0703C23.0807 10.3203 22.7266 9.27083 22.7266 7.92188C22.7266 6.52604 23.0859 5.44271 23.8047 4.67188C24.5234 3.90104 25.4557 3.51562 26.6016 3.51562C27.7109 3.51562 28.6172 3.89323 29.3203 4.64844C30.0234 5.40365 30.375 6.46615 30.375 7.83594C30.375 7.91927 30.3724 8.04427 30.3672 8.21094H24.1797C24.2318 9.1224 24.4896 9.82031 24.9531 10.3047C25.4167 10.7891 25.9948 11.0312 26.6875 11.0312C27.2031 11.0312 27.6432 10.8958 28.0078 10.625C28.3724 10.3542 28.6615 9.92188 28.875 9.32812ZM24.2578 7.05469H28.8906C28.8281 6.35677 28.651 5.83333 28.3594 5.48438C27.9115 4.94271 27.3307 4.67188 26.6172 4.67188C25.9714 4.67188 25.4271 4.88802 24.9844 5.32031C24.5469 5.7526 24.3047 6.33073 24.2578 7.05469ZM30.8047 15.1797V14.1641H40.125V15.1797H30.8047ZM40.9453 15.1953L40.7891 13.875C41.0964 13.9583 41.3646 14 41.5938 14C41.9062 14 42.1562 13.9479 42.3438 13.8438C42.5312 13.7396 42.6849 13.5938 42.8047 13.4062C42.8932 13.2656 43.0365 12.9167 43.2344 12.3594C43.2604 12.2812 43.3021 12.1667 43.3594 12.0156L40.2109 3.70312H41.7266L43.4531 8.50781C43.6771 9.11719 43.8776 9.75781 44.0547 10.4297C44.2161 9.78385 44.4089 9.15365 44.6328 8.53906L46.4062 3.70312H47.8125L44.6562 12.1406C44.3177 13.0521 44.0547 13.6797 43.8672 14.0234C43.6172 14.487 43.3307 14.8255 43.0078 15.0391C42.6849 15.2578 42.2995 15.3672 41.8516 15.3672C41.5807 15.3672 41.2786 15.3099 40.9453 15.1953ZM48.4844 7.85156C48.4844 6.3151 48.9115 5.17708 49.7656 4.4375C50.4792 3.82292 51.349 3.51562 52.375 3.51562C53.5156 3.51562 54.4479 3.89062 55.1719 4.64062C55.8958 5.38542 56.2578 6.41667 56.2578 7.73438C56.2578 8.80208 56.0964 9.64323 55.7734 10.2578C55.4557 10.8672 54.9896 11.3411 54.375 11.6797C53.7656 12.0182 53.099 12.1875 52.375 12.1875C51.2135 12.1875 50.2734 11.8151 49.5547 11.0703C48.8411 10.3255 48.4844 9.2526 48.4844 7.85156ZM49.9297 7.85156C49.9297 8.91406 50.1615 9.71094 50.625 10.2422C51.0885 10.7682 51.6719 11.0312 52.375 11.0312C53.0729 11.0312 53.6536 10.7656 54.1172 10.2344C54.5807 9.70312 54.8125 8.89323 54.8125 7.80469C54.8125 6.77865 54.5781 6.0026 54.1094 5.47656C53.6458 4.94531 53.0677 4.67969 52.375 4.67969C51.6719 4.67969 51.0885 4.94271 50.625 5.46875C50.1615 5.99479 49.9297 6.78906 49.9297 7.85156ZM63.3516 12V10.7812C62.7057 11.7188 61.8281 12.1875 60.7188 12.1875C60.2292 12.1875 59.7708 12.0938 59.3438 11.9062C58.9219 11.7188 58.6068 11.4844 58.3984 11.2031C58.1953 10.9167 58.0521 10.5677 57.9688 10.1562C57.9115 9.88021 57.8828 9.44271 57.8828 8.84375V3.70312H59.2891V8.30469C59.2891 9.03906 59.3177 9.53385 59.375 9.78906C59.4635 10.1589 59.651 10.4505 59.9375 10.6641C60.224 10.8724 60.5781 10.9766 61 10.9766C61.4219 10.9766 61.8177 10.8698 62.1875 10.6562C62.5573 10.4375 62.8177 10.1432 62.9688 9.77344C63.125 9.39844 63.2031 8.85677 63.2031 8.14844V3.70312H64.6094V12H63.3516ZM66.8047 12V3.70312H68.0703V4.96094C68.3932 4.3724 68.6901 3.98438 68.9609 3.79688C69.237 3.60938 69.5391 3.51562 69.8672 3.51562C70.3411 3.51562 70.8229 3.66667 71.3125 3.96875L70.8281 5.27344C70.4844 5.07031 70.1406 4.96875 69.7969 4.96875C69.4896 4.96875 69.2135 5.0625 68.9688 5.25C68.724 5.43229 68.5495 5.6875 68.4453 6.01562C68.2891 6.51562 68.2109 7.0625 68.2109 7.65625V12H66.8047ZM70.8516 15.1797V14.1641H80.1719V15.1797H70.8516ZM81.0234 12V0.546875H82.4297V12H81.0234ZM84.0938 7.85156C84.0938 6.3151 84.5208 5.17708 85.375 4.4375C86.0885 3.82292 86.9583 3.51562 87.9844 3.51562C89.125 3.51562 90.0573 3.89062 90.7812 4.64062C91.5052 5.38542 91.8672 6.41667 91.8672 7.73438C91.8672 8.80208 91.7057 9.64323 91.3828 10.2578C91.0651 10.8672 90.599 11.3411 89.9844 11.6797C89.375 12.0182 88.7083 12.1875 87.9844 12.1875C86.8229 12.1875 85.8828 11.8151 85.1641 11.0703C84.4505 10.3255 84.0938 9.2526 84.0938 7.85156ZM85.5391 7.85156C85.5391 8.91406 85.7708 9.71094 86.2344 10.2422C86.6979 10.7682 87.2812 11.0312 87.9844 11.0312C88.6823 11.0312 89.263 10.7656 89.7266 10.2344C90.1901 9.70312 90.4219 8.89323 90.4219 7.80469C90.4219 6.77865 90.1875 6.0026 89.7188 5.47656C89.2552 4.94531 88.6771 4.67969 87.9844 4.67969C87.2812 4.67969 86.6979 4.94271 86.2344 5.46875C85.7708 5.99479 85.5391 6.78906 85.5391 7.85156ZM93.2656 12.6875L94.6328 12.8906C94.6901 13.3125 94.849 13.6198 95.1094 13.8125C95.4583 14.0729 95.9349 14.2031 96.5391 14.2031C97.1901 14.2031 97.6927 14.0729 98.0469 13.8125C98.401 13.5521 98.6406 13.1875 98.7656 12.7188C98.8385 12.4323 98.8724 11.8307 98.8672 10.9141C98.2526 11.638 97.487 12 96.5703 12C95.4297 12 94.5469 11.5885 93.9219 10.7656C93.2969 9.94271 92.9844 8.95573 92.9844 7.80469C92.9844 7.01302 93.1276 6.28385 93.4141 5.61719C93.7005 4.94531 94.1146 4.42708 94.6562 4.0625C95.2031 3.69792 95.8438 3.51562 96.5781 3.51562C97.5573 3.51562 98.3646 3.91146 99 4.70312V3.70312H100.297V10.875C100.297 12.1667 100.164 13.0807 99.8984 13.6172C99.638 14.1589 99.2214 14.5859 98.6484 14.8984C98.0807 15.2109 97.3802 15.3672 96.5469 15.3672C95.5573 15.3672 94.7578 15.1432 94.1484 14.6953C93.5391 14.2526 93.2448 13.5833 93.2656 12.6875ZM94.4297 7.70312C94.4297 8.79167 94.6458 9.58594 95.0781 10.0859C95.5104 10.5859 96.0521 10.8359 96.7031 10.8359C97.349 10.8359 97.8906 10.5885 98.3281 10.0938C98.7656 9.59375 98.9844 8.8125 98.9844 7.75C98.9844 6.73438 98.7578 5.96875 98.3047 5.45312C97.8568 4.9375 97.3151 4.67969 96.6797 4.67969C96.0547 4.67969 95.5234 4.9349 95.0859 5.44531C94.6484 5.95052 94.4297 6.70312 94.4297 7.70312ZM102.438 2.16406V0.546875H103.844V2.16406H102.438ZM102.438 12V3.70312H103.844V12H102.438ZM105.992 12V3.70312H107.258V4.88281C107.867 3.97135 108.747 3.51562 109.898 3.51562C110.398 3.51562 110.857 3.60677 111.273 3.78906C111.695 3.96615 112.01 4.20052 112.219 4.49219C112.427 4.78385 112.573 5.13021 112.656 5.53125C112.708 5.79167 112.734 6.2474 112.734 6.89844V12H111.328V6.95312C111.328 6.38021 111.273 5.95312 111.164 5.67188C111.055 5.38542 110.859 5.15885 110.578 4.99219C110.302 4.82031 109.977 4.73438 109.602 4.73438C109.003 4.73438 108.484 4.92448 108.047 5.30469C107.615 5.6849 107.398 6.40625 107.398 7.46875V12H105.992ZM113.602 15.1797V14.1641H122.922V15.1797H113.602ZM123.242 9.52344L124.633 9.30469C124.711 9.86198 124.927 10.2891 125.281 10.5859C125.641 10.8828 126.141 11.0312 126.781 11.0312C127.427 11.0312 127.906 10.901 128.219 10.6406C128.531 10.375 128.688 10.0651 128.688 9.71094C128.688 9.39323 128.549 9.14323 128.273 8.96094C128.081 8.83594 127.602 8.67708 126.836 8.48438C125.805 8.22396 125.089 8 124.688 7.8125C124.292 7.61979 123.99 7.35677 123.781 7.02344C123.578 6.6849 123.477 6.3125 123.477 5.90625C123.477 5.53646 123.56 5.19531 123.727 4.88281C123.898 4.5651 124.13 4.30208 124.422 4.09375C124.641 3.93229 124.938 3.79688 125.312 3.6875C125.693 3.57292 126.099 3.51562 126.531 3.51562C127.182 3.51562 127.753 3.60938 128.242 3.79688C128.737 3.98438 129.102 4.23958 129.336 4.5625C129.57 4.88021 129.732 5.30729 129.82 5.84375L128.445 6.03125C128.383 5.60417 128.201 5.27083 127.898 5.03125C127.602 4.79167 127.18 4.67188 126.633 4.67188C125.987 4.67188 125.526 4.77865 125.25 4.99219C124.974 5.20573 124.836 5.45573 124.836 5.74219C124.836 5.92448 124.893 6.08854 125.008 6.23438C125.122 6.38542 125.302 6.51042 125.547 6.60938C125.688 6.66146 126.102 6.78125 126.789 6.96875C127.784 7.23438 128.477 7.45312 128.867 7.625C129.263 7.79167 129.573 8.03646 129.797 8.35938C130.021 8.68229 130.133 9.08333 130.133 9.5625C130.133 10.0312 129.995 10.474 129.719 10.8906C129.448 11.3021 129.055 11.6224 128.539 11.8516C128.023 12.0755 127.44 12.1875 126.789 12.1875C125.711 12.1875 124.888 11.9635 124.32 11.5156C123.758 11.0677 123.398 10.4036 123.242 9.52344ZM131.812 12V0.546875H133.219V7.07812L136.547 3.70312H138.367L135.195 6.78125L138.688 12H136.953L134.211 7.75781L133.219 8.71094V12H131.812ZM139.742 15.1953L139.586 13.875C139.893 13.9583 140.161 14 140.391 14C140.703 14 140.953 13.9479 141.141 13.8438C141.328 13.7396 141.482 13.5938 141.602 13.4062C141.69 13.2656 141.833 12.9167 142.031 12.3594C142.057 12.2812 142.099 12.1667 142.156 12.0156L139.008 3.70312H140.523L142.25 8.50781C142.474 9.11719 142.674 9.75781 142.852 10.4297C143.013 9.78385 143.206 9.15365 143.43 8.53906L145.203 3.70312H146.609L143.453 12.1406C143.115 13.0521 142.852 13.6797 142.664 14.0234C142.414 14.487 142.128 14.8255 141.805 15.0391C141.482 15.2578 141.096 15.3672 140.648 15.3672C140.378 15.3672 140.076 15.3099 139.742 15.1953ZM147.805 15.1797V3.70312H149.086V4.78125C149.388 4.35938 149.729 4.04427 150.109 3.83594C150.49 3.6224 150.951 3.51562 151.492 3.51562C152.201 3.51562 152.826 3.69792 153.367 4.0625C153.909 4.42708 154.318 4.94271 154.594 5.60938C154.87 6.27083 155.008 6.9974 155.008 7.78906C155.008 8.63802 154.854 9.40365 154.547 10.0859C154.245 10.763 153.802 11.2839 153.219 11.6484C152.641 12.0078 152.031 12.1875 151.391 12.1875C150.922 12.1875 150.5 12.0885 150.125 11.8906C149.755 11.6927 149.451 11.4427 149.211 11.1406V15.1797H147.805ZM149.078 7.89844C149.078 8.96615 149.294 9.75521 149.727 10.2656C150.159 10.776 150.682 11.0312 151.297 11.0312C151.922 11.0312 152.456 10.7682 152.898 10.2422C153.346 9.71094 153.57 8.89062 153.57 7.78125C153.57 6.72396 153.352 5.93229 152.914 5.40625C152.482 4.88021 151.964 4.61719 151.359 4.61719C150.76 4.61719 150.229 4.89844 149.766 5.46094C149.307 6.01823 149.078 6.83073 149.078 7.89844ZM162.391 9.32812L163.844 9.50781C163.615 10.3568 163.19 11.0156 162.57 11.4844C161.951 11.9531 161.159 12.1875 160.195 12.1875C158.982 12.1875 158.018 11.8151 157.305 11.0703C156.596 10.3203 156.242 9.27083 156.242 7.92188C156.242 6.52604 156.602 5.44271 157.32 4.67188C158.039 3.90104 158.971 3.51562 160.117 3.51562C161.227 3.51562 162.133 3.89323 162.836 4.64844C163.539 5.40365 163.891 6.46615 163.891 7.83594C163.891 7.91927 163.888 8.04427 163.883 8.21094H157.695C157.747 9.1224 158.005 9.82031 158.469 10.3047C158.932 10.7891 159.51 11.0312 160.203 11.0312C160.719 11.0312 161.159 10.8958 161.523 10.625C161.888 10.3542 162.177 9.92188 162.391 9.32812ZM157.773 7.05469H162.406C162.344 6.35677 162.167 5.83333 161.875 5.48438C161.427 4.94271 160.846 4.67188 160.133 4.67188C159.487 4.67188 158.943 4.88802 158.5 5.32031C158.062 5.7526 157.82 6.33073 157.773 7.05469Z" fill="white"/>
</svg>
