<svg width="143" height="16" viewBox="0 0 143 16" fill="none" xmlns="http://www.w3.org/2000/svg">
<path d="M0.0546875 15.1797V3.70312H1.33594V4.78125C1.63802 4.35938 1.97917 4.04427 2.35938 3.83594C2.73958 3.6224 3.20052 3.51562 3.74219 3.51562C4.45052 3.51562 5.07552 3.69792 5.61719 4.0625C6.15885 4.42708 6.56771 4.94271 6.84375 5.60938C7.11979 6.27083 7.25781 6.9974 7.25781 7.78906C7.25781 8.63802 7.10417 9.40365 6.79688 10.0859C6.49479 10.763 6.05208 11.2839 5.46875 11.6484C4.89062 12.0078 4.28125 12.1875 3.64062 12.1875C3.17188 12.1875 2.75 12.0885 2.375 11.8906C2.00521 11.6927 1.70052 11.4427 1.46094 11.1406V15.1797H0.0546875ZM1.32812 7.89844C1.32812 8.96615 1.54427 9.75521 1.97656 10.2656C2.40885 10.776 2.93229 11.0312 3.54688 11.0312C4.17188 11.0312 4.70573 10.7682 5.14844 10.2422C5.59635 9.71094 5.82031 8.89062 5.82031 7.78125C5.82031 6.72396 5.60156 5.93229 5.16406 5.40625C4.73177 4.88021 4.21354 4.61719 3.60938 4.61719C3.01042 4.61719 2.47917 4.89844 2.01562 5.46094C1.55729 6.01823 1.32812 6.83073 1.32812 7.89844ZM8.39844 9.52344L9.78906 9.30469C9.86719 9.86198 10.0833 10.2891 10.4375 10.5859C10.7969 10.8828 11.2969 11.0312 11.9375 11.0312C12.5833 11.0312 13.0625 10.901 13.375 10.6406C13.6875 10.375 13.8438 10.0651 13.8438 9.71094C13.8438 9.39323 13.7057 9.14323 13.4297 8.96094C13.237 8.83594 12.7578 8.67708 11.9922 8.48438C10.9609 8.22396 10.2448 8 9.84375 7.8125C9.44792 7.61979 9.14583 7.35677 8.9375 7.02344C8.73438 6.6849 8.63281 6.3125 8.63281 5.90625C8.63281 5.53646 8.71615 5.19531 8.88281 4.88281C9.05469 4.5651 9.28646 4.30208 9.57812 4.09375C9.79688 3.93229 10.0938 3.79688 10.4688 3.6875C10.849 3.57292 11.2552 3.51562 11.6875 3.51562C12.3385 3.51562 12.9089 3.60938 13.3984 3.79688C13.8932 3.98438 14.2578 4.23958 14.4922 4.5625C14.7266 4.88021 14.888 5.30729 14.9766 5.84375L13.6016 6.03125C13.5391 5.60417 13.3568 5.27083 13.0547 5.03125C12.7578 4.79167 12.3359 4.67188 11.7891 4.67188C11.1432 4.67188 10.6823 4.77865 10.4062 4.99219C10.1302 5.20573 9.99219 5.45573 9.99219 5.74219C9.99219 5.92448 10.0495 6.08854 10.1641 6.23438C10.2786 6.38542 10.4583 6.51042 10.7031 6.60938C10.8438 6.66146 11.2578 6.78125 11.9453 6.96875C12.9401 7.23438 13.6328 7.45312 14.0234 7.625C14.4193 7.79167 14.7292 8.03646 14.9531 8.35938C15.1771 8.68229 15.2891 9.08333 15.2891 9.5625C15.2891 10.0312 15.151 10.474 14.875 10.8906C14.6042 11.3021 14.2109 11.6224 13.6953 11.8516C13.1797 12.0755 12.5964 12.1875 11.9453 12.1875C10.8672 12.1875 10.0443 11.9635 9.47656 11.5156C8.91406 11.0677 8.55469 10.4036 8.39844 9.52344ZM22.3438 12V10.9531C21.8177 11.776 21.0443 12.1875 20.0234 12.1875C19.362 12.1875 18.7526 12.0052 18.1953 11.6406C17.6432 11.276 17.2135 10.7682 16.9062 10.1172C16.6042 9.46094 16.4531 8.70833 16.4531 7.85938C16.4531 7.03125 16.5911 6.28125 16.8672 5.60938C17.1432 4.93229 17.5573 4.41406 18.1094 4.05469C18.6615 3.69531 19.2786 3.51562 19.9609 3.51562C20.4609 3.51562 20.9062 3.6224 21.2969 3.83594C21.6875 4.04427 22.0052 4.31771 22.25 4.65625V0.546875H23.6484V12H22.3438ZM17.8984 7.85938C17.8984 8.92188 18.1224 9.71615 18.5703 10.2422C19.0182 10.7682 19.5469 11.0312 20.1562 11.0312C20.7708 11.0312 21.2917 10.7812 21.7188 10.2812C22.151 9.77604 22.3672 9.00781 22.3672 7.97656C22.3672 6.84115 22.1484 6.00781 21.7109 5.47656C21.2734 4.94531 20.7344 4.67969 20.0938 4.67969C19.4688 4.67969 18.9453 4.9349 18.5234 5.44531C18.1068 5.95573 17.8984 6.76042 17.8984 7.85938ZM25.8672 12V0.546875H27.2734V4.65625C27.9297 3.89583 28.7578 3.51562 29.7578 3.51562C30.3724 3.51562 30.9062 3.63802 31.3594 3.88281C31.8125 4.1224 32.1354 4.45573 32.3281 4.88281C32.526 5.3099 32.625 5.92969 32.625 6.74219V12H31.2188V6.74219C31.2188 6.03906 31.0651 5.52865 30.7578 5.21094C30.4557 4.88802 30.026 4.72656 29.4688 4.72656C29.0521 4.72656 28.6589 4.83594 28.2891 5.05469C27.9245 5.26823 27.6641 5.5599 27.5078 5.92969C27.3516 6.29948 27.2734 6.8099 27.2734 7.46094V12H25.8672ZM37.8438 10.7422L38.0469 11.9844C37.651 12.0677 37.2969 12.1094 36.9844 12.1094C36.474 12.1094 36.0781 12.0286 35.7969 11.8672C35.5156 11.7057 35.3177 11.4948 35.2031 11.2344C35.0885 10.9688 35.0312 10.4141 35.0312 9.57031V4.79688H34V3.70312H35.0312V1.64844L36.4297 0.804688V3.70312H37.8438V4.79688H36.4297V9.64844C36.4297 10.0495 36.4531 10.3073 36.5 10.4219C36.5521 10.5365 36.6328 10.6276 36.7422 10.6953C36.8568 10.763 37.0182 10.7969 37.2266 10.7969C37.3828 10.7969 37.5885 10.7786 37.8438 10.7422ZM39.2266 12V3.70312H40.4844V4.86719C40.7448 4.46094 41.0911 4.13542 41.5234 3.89062C41.9557 3.64062 42.4479 3.51562 43 3.51562C43.6146 3.51562 44.1172 3.64323 44.5078 3.89844C44.9036 4.15365 45.1823 4.51042 45.3438 4.96875C46 4 46.8542 3.51562 47.9062 3.51562C48.7292 3.51562 49.362 3.74479 49.8047 4.20312C50.2474 4.65625 50.4688 5.35677 50.4688 6.30469V12H49.0703V6.77344C49.0703 6.21094 49.0234 5.80729 48.9297 5.5625C48.8411 5.3125 48.6771 5.11198 48.4375 4.96094C48.1979 4.8099 47.9167 4.73438 47.5938 4.73438C47.0104 4.73438 46.526 4.92969 46.1406 5.32031C45.7552 5.70573 45.5625 6.32552 45.5625 7.17969V12H44.1562V6.60938C44.1562 5.98438 44.0417 5.51562 43.8125 5.20312C43.5833 4.89062 43.2083 4.73438 42.6875 4.73438C42.2917 4.73438 41.9245 4.83854 41.5859 5.04688C41.2526 5.25521 41.0104 5.5599 40.8594 5.96094C40.7083 6.36198 40.6328 6.9401 40.6328 7.69531V12H39.2266ZM52.5234 12V0.546875H53.9297V12H52.5234ZM61.5312 8.96094L62.9141 9.14062C62.763 10.0938 62.375 10.8411 61.75 11.3828C61.1302 11.9193 60.3672 12.1875 59.4609 12.1875C58.3255 12.1875 57.4115 11.8177 56.7188 11.0781C56.0312 10.3333 55.6875 9.26823 55.6875 7.88281C55.6875 6.98698 55.8359 6.20312 56.1328 5.53125C56.4297 4.85938 56.8802 4.35677 57.4844 4.02344C58.0938 3.6849 58.7552 3.51562 59.4688 3.51562C60.3698 3.51562 61.1068 3.74479 61.6797 4.20312C62.2526 4.65625 62.6198 5.30208 62.7812 6.14062L61.4141 6.35156C61.2839 5.79427 61.0521 5.375 60.7188 5.09375C60.3906 4.8125 59.9922 4.67188 59.5234 4.67188C58.8151 4.67188 58.2396 4.92708 57.7969 5.4375C57.3542 5.94271 57.1328 6.74479 57.1328 7.84375C57.1328 8.95833 57.3464 9.76823 57.7734 10.2734C58.2005 10.7786 58.7578 11.0312 59.4453 11.0312C59.9974 11.0312 60.4583 10.862 60.8281 10.5234C61.1979 10.1849 61.4323 9.66406 61.5312 8.96094ZM63.5547 9.52344L64.9453 9.30469C65.0234 9.86198 65.2396 10.2891 65.5938 10.5859C65.9531 10.8828 66.4531 11.0312 67.0938 11.0312C67.7396 11.0312 68.2188 10.901 68.5312 10.6406C68.8438 10.375 69 10.0651 69 9.71094C69 9.39323 68.862 9.14323 68.5859 8.96094C68.3932 8.83594 67.9141 8.67708 67.1484 8.48438C66.1172 8.22396 65.401 8 65 7.8125C64.6042 7.61979 64.3021 7.35677 64.0938 7.02344C63.8906 6.6849 63.7891 6.3125 63.7891 5.90625C63.7891 5.53646 63.8724 5.19531 64.0391 4.88281C64.2109 4.5651 64.4427 4.30208 64.7344 4.09375C64.9531 3.93229 65.25 3.79688 65.625 3.6875C66.0052 3.57292 66.4115 3.51562 66.8438 3.51562C67.4948 3.51562 68.0651 3.60938 68.5547 3.79688C69.0495 3.98438 69.4141 4.23958 69.6484 4.5625C69.8828 4.88021 70.0443 5.30729 70.1328 5.84375L68.7578 6.03125C68.6953 5.60417 68.513 5.27083 68.2109 5.03125C67.9141 4.79167 67.4922 4.67188 66.9453 4.67188C66.2995 4.67188 65.8385 4.77865 65.5625 4.99219C65.2865 5.20573 65.1484 5.45573 65.1484 5.74219C65.1484 5.92448 65.2057 6.08854 65.3203 6.23438C65.4349 6.38542 65.6146 6.51042 65.8594 6.60938C66 6.66146 66.4141 6.78125 67.1016 6.96875C68.0964 7.23438 68.7891 7.45312 69.1797 7.625C69.5755 7.79167 69.8854 8.03646 70.1094 8.35938C70.3333 8.68229 70.4453 9.08333 70.4453 9.5625C70.4453 10.0312 70.3073 10.474 70.0312 10.8906C69.7604 11.3021 69.3672 11.6224 68.8516 11.8516C68.3359 12.0755 67.7526 12.1875 67.1016 12.1875C66.0234 12.1875 65.2005 11.9635 64.6328 11.5156C64.0703 11.0677 63.7109 10.4036 63.5547 9.52344ZM71.5547 9.52344L72.9453 9.30469C73.0234 9.86198 73.2396 10.2891 73.5938 10.5859C73.9531 10.8828 74.4531 11.0312 75.0938 11.0312C75.7396 11.0312 76.2188 10.901 76.5312 10.6406C76.8438 10.375 77 10.0651 77 9.71094C77 9.39323 76.862 9.14323 76.5859 8.96094C76.3932 8.83594 75.9141 8.67708 75.1484 8.48438C74.1172 8.22396 73.401 8 73 7.8125C72.6042 7.61979 72.3021 7.35677 72.0938 7.02344C71.8906 6.6849 71.7891 6.3125 71.7891 5.90625C71.7891 5.53646 71.8724 5.19531 72.0391 4.88281C72.2109 4.5651 72.4427 4.30208 72.7344 4.09375C72.9531 3.93229 73.25 3.79688 73.625 3.6875C74.0052 3.57292 74.4115 3.51562 74.8438 3.51562C75.4948 3.51562 76.0651 3.60938 76.5547 3.79688C77.0495 3.98438 77.4141 4.23958 77.6484 4.5625C77.8828 4.88021 78.0443 5.30729 78.1328 5.84375L76.7578 6.03125C76.6953 5.60417 76.513 5.27083 76.2109 5.03125C75.9141 4.79167 75.4922 4.67188 74.9453 4.67188C74.2995 4.67188 73.8385 4.77865 73.5625 4.99219C73.2865 5.20573 73.1484 5.45573 73.1484 5.74219C73.1484 5.92448 73.2057 6.08854 73.3203 6.23438C73.4349 6.38542 73.6146 6.51042 73.8594 6.60938C74 6.66146 74.4141 6.78125 75.1016 6.96875C76.0964 7.23438 76.7891 7.45312 77.1797 7.625C77.5755 7.79167 77.8854 8.03646 78.1094 8.35938C78.3333 8.68229 78.4453 9.08333 78.4453 9.5625C78.4453 10.0312 78.3073 10.474 78.0312 10.8906C77.7604 11.3021 77.3672 11.6224 76.8516 11.8516C76.3359 12.0755 75.7526 12.1875 75.1016 12.1875C74.0234 12.1875 73.2005 11.9635 72.6328 11.5156C72.0703 11.0677 71.7109 10.4036 71.5547 9.52344ZM88.1328 10.7266C87.7943 11.1172 87.4141 11.4323 86.9922 11.6719C86.5755 11.9062 86.1562 12.0234 85.7344 12.0234C85.2708 12.0234 84.8203 11.888 84.3828 11.6172C83.9453 11.3464 83.5885 10.9297 83.3125 10.3672C83.0417 9.80469 82.9062 9.1875 82.9062 8.51562C82.9062 7.6875 83.1172 6.85938 83.5391 6.03125C83.9661 5.19792 84.4948 4.57292 85.125 4.15625C85.7552 3.73958 86.3672 3.53125 86.9609 3.53125C87.4141 3.53125 87.8464 3.65104 88.2578 3.89062C88.6693 4.125 89.0234 4.48438 89.3203 4.96875L89.5859 3.75781H90.9844L89.8594 9C89.7031 9.72917 89.625 10.1328 89.625 10.2109C89.625 10.3516 89.6771 10.474 89.7812 10.5781C89.8906 10.6771 90.0208 10.7266 90.1719 10.7266C90.4479 10.7266 90.8099 10.5677 91.2578 10.25C91.8516 9.83333 92.3203 9.27604 92.6641 8.57812C93.013 7.875 93.1875 7.15104 93.1875 6.40625C93.1875 5.53646 92.9635 4.72396 92.5156 3.96875C92.0729 3.21354 91.4089 2.60938 90.5234 2.15625C89.6432 1.70312 88.6693 1.47656 87.6016 1.47656C86.3828 1.47656 85.2682 1.76302 84.2578 2.33594C83.2526 2.90365 82.4714 3.72135 81.9141 4.78906C81.362 5.85156 81.0859 6.99219 81.0859 8.21094C81.0859 9.48698 81.362 10.5859 81.9141 11.5078C82.4714 12.4297 83.2734 13.1094 84.3203 13.5469C85.3724 13.9896 86.5365 14.2109 87.8125 14.2109C89.1771 14.2109 90.3203 13.9818 91.2422 13.5234C92.1641 13.0651 92.8542 12.5078 93.3125 11.8516H94.7266C94.4609 12.3984 94.0052 12.9557 93.3594 13.5234C92.7135 14.0911 91.9453 14.5391 91.0547 14.8672C90.1641 15.2005 89.0911 15.3672 87.8359 15.3672C86.6797 15.3672 85.612 15.2188 84.6328 14.9219C83.6589 14.625 82.8281 14.1771 82.1406 13.5781C81.4531 12.9844 80.9349 12.2995 80.5859 11.5234C80.1484 10.5391 79.9297 9.47656 79.9297 8.33594C79.9297 7.0651 80.1901 5.85417 80.7109 4.70312C81.3464 3.29167 82.2474 2.21094 83.4141 1.46094C84.5859 0.710938 86.0052 0.335938 87.6719 0.335938C88.9635 0.335938 90.1224 0.601562 91.1484 1.13281C92.1797 1.65885 92.9922 2.44531 93.5859 3.49219C94.0911 4.39323 94.3438 5.3724 94.3438 6.42969C94.3438 7.9401 93.8125 9.28125 92.75 10.4531C91.8021 11.5052 90.7656 12.0312 89.6406 12.0312C89.2812 12.0312 88.9896 11.9766 88.7656 11.8672C88.5469 11.7578 88.3854 11.6016 88.2812 11.3984C88.2135 11.2682 88.1641 11.0443 88.1328 10.7266ZM84.3516 8.60938C84.3516 9.32292 84.5208 9.8776 84.8594 10.2734C85.1979 10.6693 85.5859 10.8672 86.0234 10.8672C86.3151 10.8672 86.6224 10.7812 86.9453 10.6094C87.2682 10.4323 87.5755 10.1719 87.8672 9.82812C88.1641 9.48438 88.4062 9.04948 88.5938 8.52344C88.7812 7.99219 88.875 7.46094 88.875 6.92969C88.875 6.22135 88.6979 5.67188 88.3438 5.28125C87.9948 4.89062 87.5677 4.69531 87.0625 4.69531C86.7292 4.69531 86.4141 4.78125 86.1172 4.95312C85.8255 5.11979 85.5417 5.39062 85.2656 5.76562C84.9896 6.14062 84.7682 6.59635 84.6016 7.13281C84.4349 7.66927 84.3516 8.16146 84.3516 8.60938ZM96.3672 12V3.70312H97.625V4.86719C97.8854 4.46094 98.2318 4.13542 98.6641 3.89062C99.0964 3.64062 99.5885 3.51562 100.141 3.51562C100.755 3.51562 101.258 3.64323 101.648 3.89844C102.044 4.15365 102.323 4.51042 102.484 4.96875C103.141 4 103.995 3.51562 105.047 3.51562C105.87 3.51562 106.503 3.74479 106.945 4.20312C107.388 4.65625 107.609 5.35677 107.609 6.30469V12H106.211V6.77344C106.211 6.21094 106.164 5.80729 106.07 5.5625C105.982 5.3125 105.818 5.11198 105.578 4.96094C105.339 4.8099 105.057 4.73438 104.734 4.73438C104.151 4.73438 103.667 4.92969 103.281 5.32031C102.896 5.70573 102.703 6.32552 102.703 7.17969V12H101.297V6.60938C101.297 5.98438 101.182 5.51562 100.953 5.20312C100.724 4.89062 100.349 4.73438 99.8281 4.73438C99.4323 4.73438 99.0651 4.83854 98.7266 5.04688C98.3932 5.25521 98.151 5.5599 98 5.96094C97.849 6.36198 97.7734 6.9401 97.7734 7.69531V12H96.3672ZM115.109 10.9766C114.589 11.4193 114.086 11.7318 113.602 11.9141C113.122 12.0964 112.607 12.1875 112.055 12.1875C111.143 12.1875 110.443 11.9661 109.953 11.5234C109.464 11.0755 109.219 10.5052 109.219 9.8125C109.219 9.40625 109.31 9.03646 109.492 8.70312C109.68 8.36458 109.922 8.09375 110.219 7.89062C110.521 7.6875 110.859 7.53385 111.234 7.42969C111.51 7.35677 111.927 7.28646 112.484 7.21875C113.62 7.08333 114.456 6.92188 114.992 6.73438C114.997 6.54167 115 6.41927 115 6.36719C115 5.79427 114.867 5.39062 114.602 5.15625C114.242 4.83854 113.708 4.67969 113 4.67969C112.339 4.67969 111.849 4.79688 111.531 5.03125C111.219 5.26042 110.987 5.66927 110.836 6.25781L109.461 6.07031C109.586 5.48177 109.792 5.00781 110.078 4.64844C110.365 4.28385 110.779 4.00521 111.32 3.8125C111.862 3.61458 112.49 3.51562 113.203 3.51562C113.911 3.51562 114.487 3.59896 114.93 3.76562C115.372 3.93229 115.698 4.14323 115.906 4.39844C116.115 4.64844 116.26 4.96615 116.344 5.35156C116.391 5.59115 116.414 6.02344 116.414 6.64844V8.52344C116.414 9.83073 116.443 10.6589 116.5 11.0078C116.562 11.3516 116.682 11.6823 116.859 12H115.391C115.245 11.7083 115.151 11.3672 115.109 10.9766ZM114.992 7.83594C114.482 8.04427 113.716 8.22135 112.695 8.36719C112.117 8.45052 111.708 8.54427 111.469 8.64844C111.229 8.7526 111.044 8.90625 110.914 9.10938C110.784 9.30729 110.719 9.52865 110.719 9.77344C110.719 10.1484 110.859 10.4609 111.141 10.7109C111.427 10.9609 111.844 11.0859 112.391 11.0859C112.932 11.0859 113.414 10.9688 113.836 10.7344C114.258 10.4948 114.568 10.1693 114.766 9.75781C114.917 9.4401 114.992 8.97135 114.992 8.35156V7.83594ZM118.609 2.16406V0.546875H120.016V2.16406H118.609ZM118.609 12V3.70312H120.016V12H118.609ZM122.133 12V0.546875H123.539V12H122.133ZM126.125 12V10.3984H127.727V12H126.125ZM130.164 12V3.70312H131.43V4.96094C131.753 4.3724 132.049 3.98438 132.32 3.79688C132.596 3.60938 132.898 3.51562 133.227 3.51562C133.701 3.51562 134.182 3.66667 134.672 3.96875L134.188 5.27344C133.844 5.07031 133.5 4.96875 133.156 4.96875C132.849 4.96875 132.573 5.0625 132.328 5.25C132.083 5.43229 131.909 5.6875 131.805 6.01562C131.648 6.51562 131.57 7.0625 131.57 7.65625V12H130.164ZM140.945 12V10.7812C140.299 11.7188 139.422 12.1875 138.312 12.1875C137.823 12.1875 137.365 12.0938 136.938 11.9062C136.516 11.7188 136.201 11.4844 135.992 11.2031C135.789 10.9167 135.646 10.5677 135.562 10.1562C135.505 9.88021 135.477 9.44271 135.477 8.84375V3.70312H136.883V8.30469C136.883 9.03906 136.911 9.53385 136.969 9.78906C137.057 10.1589 137.245 10.4505 137.531 10.6641C137.818 10.8724 138.172 10.9766 138.594 10.9766C139.016 10.9766 139.411 10.8698 139.781 10.6562C140.151 10.4375 140.411 10.1432 140.562 9.77344C140.719 9.39844 140.797 8.85677 140.797 8.14844V3.70312H142.203V12H140.945Z" fill="white"/>
</svg>
